<?xml version="1.0" encoding="UTF-8" standalone="no"?>
<!DOCTYPE svg PUBLIC "-//W3C//DTD SVG 1.1//EN" "http://www.w3.org/Graphics/SVG/1.1/DTD/svg11.dtd">
<svg width="100%" height="100%" viewBox="0 0 500 500" version="1.1" xmlns="http://www.w3.org/2000/svg" xmlns:xlink="http://www.w3.org/1999/xlink" xml:space="preserve" xmlns:serif="http://www.serif.com/" style="fill-rule:evenodd;clip-rule:evenodd;stroke-linejoin:round;stroke-miterlimit:2;">
    <g transform="matrix(1.63029,0,0,1.63029,-173.697,-123.579)">
        <g transform="matrix(0.930302,0,0,0.946479,8.55164,6.49464)">
            <g transform="matrix(-0.998108,0.0623337,0,-0.735962,446.112,393.516)">
                <path d="M323.258,147.236L136.001,147.236L136.001,401.786L299.203,401.786C312.728,401.786 323.258,387.721 323.258,369.656L323.258,147.236Z" style="fill:rgb(37,103,177);"/>
            </g>
            <path d="M310.368,136.105L310.368,106.294C310.368,106.294 214.309,112.293 159.921,115.69C149.515,116.34 137.393,118.158 130.82,125.317C124.449,132.256 123.465,144.388 123.465,154.494C123.465,209.006 123.465,305.305 123.465,305.305L152.465,303.494L152.465,182.494C152.465,161.962 168.43,144.97 188.921,143.69L310.368,136.105Z" style="fill:rgb(27,91,162);"/>
        </g>
        <g>
            <g transform="matrix(-0.780029,-0.9994,8.23364e-17,-1.55329,513.803,524.694)">
                <path d="M251.387,-45.193L150.551,22.805L194.908,19.211C194.908,19.211 197.888,85.571 198.738,104.486C198.883,107.717 201.162,109.463 205.236,109.463L249.085,109.463L251.387,-45.193Z" style="fill:rgb(27,91,162);"/>
            </g>
            <g transform="matrix(-0.89985,0.0561973,-0.755999,-0.968611,468.51,424.004)">
                <path d="M267.456,98.998C267.456,92.421 262.097,88.489 253.133,88.489L56.675,88.489L56.675,128.607L267.456,128.607L267.456,98.998Z" style="fill:rgb(27,91,162);"/>
            </g>
        </g>
    </g>
</svg>
